<svg width="24" height="24" viewBox="0 0 24 24" fill="none" xmlns="http://www.w3.org/2000/svg">
<g id="icon-eye-off-mono">
<g id="Group">
<path id="Vector" d="M14.7799 4.67173C13.8719 4.45373 12.9439 4.32373 12.0009 4.32373C7.78892 4.32373 3.80592 6.58473 1.18292 10.3517C0.498922 11.3337 0.498922 12.6667 1.18292 13.6487C1.82292 14.5677 2.54592 15.3927 3.33092 16.1217L14.7799 4.67173Z" fill="#626262"/>
<path id="Vector_2" d="M22.8207 10.3518C21.7707 8.84384 20.4957 7.59084 19.0807 6.61884L21.6497 4.04984C22.1187 3.58084 22.1187 2.82084 21.6497 2.35284C21.1807 1.88484 20.4207 1.88384 19.9527 2.35284L2.3537 19.9498C1.8847 20.4188 1.8847 21.1788 2.3537 21.6468C2.5877 21.8808 2.8957 21.9988 3.2027 21.9988C3.5097 21.9988 3.8167 21.8818 4.0517 21.6468L7.0957 18.6028C8.6447 19.2938 10.3017 19.6758 12.0017 19.6758C16.2147 19.6758 20.1977 17.4148 22.8207 13.6478C23.5037 12.6668 23.5037 11.3338 22.8207 10.3518V10.3518ZM12.0007 15.9738C11.3417 15.9738 10.7267 15.8028 10.1817 15.5158L15.5167 10.1808C15.8037 10.7258 15.9747 11.3398 15.9747 11.9988C15.9747 14.1918 14.1917 15.9738 12.0007 15.9738V15.9738Z" fill="#626262"/>
</g>
</g>
</svg>
